<svg width="50" height="50" viewBox="0 0 50 50" fill="none" xmlns="http://www.w3.org/2000/svg">
<path d="M45.3125 25C45.3125 20.9828 44.1213 17.0558 41.8896 13.7155C39.6578 10.3753 36.4858 7.77175 32.7744 6.23419C29.0631 4.69664 24.9792 4.29409 21.0391 5.07744C17.099 5.86079 13.4797 7.79486 10.6387 10.6351C7.79774 13.4754 5.86276 17.0942 5.07843 21.0341C4.29409 24.974 4.69562 29.058 6.23225 32.7697C7.76888 36.4815 10.3716 39.6542 13.7113 41.8868C17.051 44.1193 20.9777 45.3115 24.9949 45.3125H25L25.0051 45.3123C30.3895 45.3049 35.5512 43.1624 39.3582 39.3545C43.1651 35.5467 45.3064 30.3845 45.3125 25ZM26.5625 42.1156V29.6877H31.25C31.6644 29.6877 32.0618 29.5231 32.3549 29.2301C32.6479 28.937 32.8125 28.5396 32.8125 28.1252C32.8125 27.7108 32.6479 27.3134 32.3549 27.0203C32.0618 26.7273 31.6644 26.5627 31.25 26.5627H26.5625V21.8752C26.5634 21.0467 26.893 20.2524 27.4788 19.6665C28.0647 19.0807 28.859 18.7511 29.6875 18.7502H32.8125C33.2269 18.7502 33.6243 18.5856 33.9174 18.2926C34.2104 17.9995 34.375 17.6021 34.375 17.1877C34.375 16.7733 34.2104 16.3759 33.9174 16.0828C33.6243 15.7898 33.2269 15.6252 32.8125 15.6252H29.6875C28.0305 15.6271 26.4418 16.2861 25.2701 17.4578C24.0984 18.6295 23.4394 20.2182 23.4375 21.8752V26.5627H18.75C18.3356 26.5627 17.9382 26.7273 17.6452 27.0203C17.3521 27.3134 17.1875 27.7108 17.1875 28.1252C17.1875 28.5396 17.3521 28.937 17.6452 29.2301C17.9382 29.5231 18.3356 29.6877 18.75 29.6877H23.4375V42.1156C19.0328 41.7135 14.9527 39.6289 12.0458 36.2952C9.1389 32.9616 7.62906 28.6357 7.83031 24.2172C8.03157 19.7988 9.92842 15.628 13.1263 12.5725C16.3242 9.51692 20.577 7.8118 25 7.8118C29.423 7.8118 33.6758 9.51692 36.8737 12.5725C40.0716 15.628 41.9685 19.7988 42.1697 24.2172C42.371 28.6357 40.8611 32.9616 37.9542 36.2952C35.0473 39.6289 30.9672 41.7135 26.5625 42.1156Z" fill="white"/>
</svg>
