<svg width="50" height="50" viewBox="0 0 50 50" fill="none" xmlns="http://www.w3.org/2000/svg">
<path d="M44.9126 6.49445C44.5359 6.16907 44.0773 5.95298 43.5865 5.8696C43.0958 5.78621 42.5916 5.83871 42.1286 6.02141L6.08229 20.1825C5.53249 20.3985 5.06742 20.7867 4.75665 21.289C4.44589 21.7914 4.30616 22.3808 4.35836 22.9692C4.41056 23.5576 4.65189 24.1133 5.04623 24.5531C5.44057 24.9928 5.96673 25.2931 6.54596 25.4089L16.0159 27.3027V39.0591C16.0153 39.6002 16.1754 40.1292 16.4757 40.5793C16.7761 41.0293 17.2033 41.3801 17.7032 41.5871C18.2031 41.7942 18.7532 41.8482 19.2838 41.7423C19.8144 41.6365 20.3017 41.3755 20.6838 40.9925L26.0098 35.6663L33.9756 42.6765C34.4711 43.1164 35.1104 43.3597 35.7729 43.3605C36.0609 43.3601 36.3471 43.3147 36.6211 43.2259C37.0731 43.0826 37.4795 42.8232 37.8 42.4738C38.1204 42.1243 38.3436 41.6969 38.4473 41.2343L45.7936 9.17707C45.9055 8.69208 45.8826 8.18572 45.7273 7.71282C45.572 7.23993 45.2904 6.81853 44.9128 6.49426L44.9126 6.49445ZM6.69303 22.762C6.68037 22.6773 6.69815 22.5909 6.74321 22.518C6.78826 22.4452 6.85768 22.3907 6.93912 22.3642L37.101 10.5148L16.9161 25.0927L7.00553 23.1105C6.92063 23.0988 6.84264 23.0573 6.78542 22.9935C6.7282 22.9297 6.69546 22.8477 6.69303 22.762ZM19.0264 39.3355C18.9718 39.3901 18.9022 39.4273 18.8264 39.4423C18.7507 39.4574 18.6721 39.4497 18.6008 39.4201C18.5294 39.3905 18.4684 39.3405 18.4255 39.2763C18.3826 39.212 18.3596 39.1365 18.3596 39.0593V28.9343L24.2469 34.1152L19.0264 39.3355ZM36.1628 40.7109C36.1477 40.7768 36.1157 40.8378 36.07 40.8877C36.0243 40.9376 35.9664 40.9748 35.9019 40.9956C35.8375 41.0164 35.7688 41.0201 35.7025 41.0063C35.6363 40.9926 35.5747 40.9618 35.5239 40.9171L19.0641 26.4325L43.4751 8.80246L36.1628 40.7109Z" fill="white"/>
</svg>
